<?xml version="1.0" standalone="no"?>
<!DOCTYPE svg PUBLIC "-//W3C//DTD SVG 20010904//EN"
 "http://www.w3.org/TR/2001/REC-SVG-20010904/DTD/svg10.dtd">
<svg version="1.0" xmlns="http://www.w3.org/2000/svg"
 width="2700.000000pt" height="2700.000000pt" viewBox="0 0 2700.000000 2700.000000"
 preserveAspectRatio="xMidYMid meet">
<metadata>
Created by potrace 1.14, written by Peter Selinger 2001-2017
</metadata>
<g transform="translate(0.000000,2700.000000) scale(0.100000,-0.100000)"
fill="#000000" stroke="none">
<path d="M13110 26054 c-371 -15 -789 -46 -1110 -84 -1746 -207 -3431 -783
-4950 -1692 -1768 -1058 -3266 -2557 -4328 -4327 -335 -560 -637 -1168 -880
-1773 -1203 -2992 -1203 -6364 0 -9356 919 -2290 2496 -4259 4538 -5669 940
-650 1996 -1180 3080 -1548 967 -328 1980 -538 2985 -619 418 -34 576 -40
1055 -40 578 0 936 19 1455 79 1770 204 3462 779 4995 1697 1650 988 3070
2363 4111 3978 1469 2282 2154 4947 1969 7670 -143 2108 -820 4145 -1969 5930
-895 1389 -2068 2598 -3441 3547 -1053 728 -2276 1317 -3486 1678 -956 286
-1837 443 -2868 510 -215 15 -964 27 -1156 19z m2360 -672 c138 -28 186 -42
188 -53 2 -9 -45 -258 -103 -554 -57 -296 -104 -539 -102 -541 1 -1 121 90
267 203 146 113 274 211 285 219 18 12 51 8 263 -34 133 -27 244 -50 246 -53
2 -2 -102 -81 -231 -174 -130 -94 -271 -195 -313 -226 l-77 -57 184 -537 c101
-296 182 -539 181 -540 -3 -2 -368 68 -415 80 -20 5 -38 51 -145 380 -67 206
-126 375 -130 375 -13 0 -209 -143 -217 -159 -5 -9 -27 -117 -51 -241 -23
-124 -46 -228 -49 -233 -7 -7 -387 65 -398 77 -6 5 387 2050 402 2094 6 16 3
16 215 -26z m-1924 -437 c166 -32 300 -125 342 -238 37 -97 43 -170 52 -577 5
-217 13 -428 19 -468 12 -78 41 -173 71 -233 11 -20 16 -39 13 -43 -4 -3 -97
-6 -208 -6 l-201 0 -18 58 c-37 115 -28 110 -93 53 -117 -105 -272 -161 -442
-161 -168 0 -286 46 -384 149 -68 71 -103 144 -117 242 -27 191 65 376 226
457 81 40 158 64 379 117 105 25 225 57 269 71 l78 26 -7 57 c-9 81 -41 141
-90 165 -34 18 -59 21 -165 21 -111 0 -130 -3 -168 -23 -46 -25 -94 -84 -112
-138 -11 -31 -15 -35 -38 -30 -15 3 -98 17 -186 30 -87 14 -160 27 -162 29 -8
8 21 88 58 160 83 159 208 245 412 282 101 19 376 19 472 0z m4389 -239 c83
-32 139 -59 137 -66 -1 -7 -32 -87 -67 -179 -42 -109 -68 -165 -77 -163 -20 5
-350 132 -363 140 -8 5 9 60 56 182 38 96 68 176 69 177 0 3 53 -17 245 -91z
m-6365 67 c0 -69 -215 -1949 -230 -2011 -26 -109 -69 -189 -136 -252 -96 -91
-286 -164 -459 -177 l-80 -6 -53 144 c-29 79 -52 150 -52 157 0 8 15 12 43 12
55 0 158 25 206 49 81 42 138 145 148 271 l5 65 -467 674 c-257 371 -469 680
-471 686 -6 16 415 123 425 108 3 -6 143 -225 311 -488 168 -263 306 -472 307
-464 1 8 21 266 44 574 23 308 42 561 43 562 2 3 390 101 404 102 6 1 12 -2
12 -6z m6106 -602 c98 -37 180 -73 181 -78 6 -18 -545 -1438 -559 -1441 -24
-4 -373 136 -372 150 2 32 550 1438 560 1438 7 0 92 -31 190 -69z m-8744 -302
c110 -24 185 -82 264 -205 20 -31 110 -206 200 -388 184 -374 234 -457 334
-549 38 -36 70 -66 70 -69 0 -2 -81 -44 -180 -93 l-180 -90 -62 62 -61 62 -45
-92 c-97 -198 -298 -341 -523 -372 -105 -14 -255 35 -339 111 -112 101 -176
275 -151 410 27 146 118 258 371 454 74 58 166 134 204 170 77 74 77 77 25
149 -63 88 -129 101 -257 51 -156 -61 -215 -130 -216 -253 l-1 -68 -70 -21
c-269 -80 -294 -86 -299 -69 -13 45 -16 154 -6 216 31 201 168 349 442 480
220 105 346 132 480 104z m10173 -354 c72 -43 136 -84 143 -90 11 -10 4 -28
-42 -101 -30 -49 -54 -89 -53 -90 1 -1 34 6 72 16 88 24 239 26 319 5 167 -44
329 -173 401 -319 36 -72 39 -85 39 -165 0 -95 -15 -152 -71 -264 -27 -55
-564 -941 -579 -956 -4 -4 -294 169 -335 200 -20 15 -16 23 221 410 286 466
322 536 323 618 1 153 -132 260 -312 249 -167 -10 -208 -56 -556 -628 -109
-179 -199 -326 -200 -327 -1 -2 -341 203 -354 213 -1 1 180 302 404 669 392
640 409 665 429 652 12 -7 80 -49 151 -92z m-12629 -810 c-19 -313 -33 -572
-30 -574 2 -2 331 -100 731 -217 401 -117 736 -217 746 -221 15 -7 -17 -38
-175 -173 -105 -91 -202 -173 -214 -182 -21 -17 -38 -12 -570 171 -302 104
-550 189 -551 188 -1 -1 -9 -113 -18 -249 l-16 -248 212 -245 c119 -139 208
-250 203 -255 -48 -45 -317 -270 -323 -270 -6 0 -1334 1540 -1384 1605 l-17
23 166 143 c91 78 169 138 172 132 18 -26 605 -703 608 -700 3 3 44 1140 44
1228 l0 48 223 190 c122 105 223 188 224 183 2 -4 -13 -263 -31 -577z m7474
-215 c2130 -110 4122 -951 5673 -2394 1203 -1120 2077 -2538 2527 -4101 549
-1910 452 -3968 -275 -5800 -875 -2204 -2572 -3971 -4735 -4930 -947 -420
-1954 -669 -3015 -747 -239 -17 -1011 -17 -1250 0 -2041 149 -3916 950 -5424
2316 -1876 1700 -2950 4116 -2951 6636 0 1434 307 2758 935 4025 485 979 1136
1850 1942 2601 1542 1434 3545 2283 5648 2393 224 12 704 12 925 1z m7392
-639 c83 -27 201 -105 263 -174 103 -114 146 -227 148 -385 l0 -103 74 73 73
73 138 -138 137 -137 -560 -559 c-308 -307 -591 -581 -629 -610 -167 -124
-319 -165 -470 -126 -74 20 -186 75 -256 128 -137 103 -316 300 -386 423 -61
109 -76 166 -72 279 3 87 8 109 34 165 17 36 51 88 77 115 40 44 47 48 60 35
8 -8 76 -93 150 -188 l136 -173 -19 -32 c-24 -39 -25 -97 -3 -145 27 -59 150
-175 226 -212 125 -61 188 -35 377 155 l105 105 -94 0 c-172 0 -290 48 -408
167 -123 124 -181 280 -169 452 8 110 55 248 118 351 58 94 198 245 301 324
79 60 211 127 297 151 80 22 263 14 352 -14z m-18906 -5953 c106 -38 183 -107
242 -216 l28 -51 83 60 c143 102 284 159 392 159 50 0 106 -15 127 -35 11 -10
5 -14 -30 -19 -68 -10 -163 -60 -217 -114 -44 -44 -131 -195 -119 -207 2 -2
47 11 99 29 183 66 356 83 507 51 222 -46 430 -230 542 -478 51 -113 49 -118
-16 -58 -212 194 -438 257 -620 172 l-68 -32 97 -52 c438 -234 668 -634 644
-1117 -6 -114 -32 -278 -46 -293 -4 -4 -13 12 -20 35 -24 80 -122 313 -175
415 -80 153 -141 239 -235 333 -89 89 -158 133 -225 146 l-39 7 35 -64 c50
-89 107 -246 130 -359 24 -113 28 -323 9 -444 -30 -186 -109 -401 -217 -592
-45 -79 -203 -299 -209 -292 -1 2 6 43 15 91 31 148 43 338 44 662 0 344 -8
426 -64 597 -58 181 -169 332 -288 392 -61 31 -54 39 -81 -101 -110 -557 -104
-919 25 -1688 107 -640 188 -896 464 -1465 77 -157 146 -311 155 -343 21 -71
21 -166 1 -205 -37 -71 -155 -131 -233 -119 -44 8 -97 47 -128 97 -36 58 -144
403 -255 815 -164 609 -261 1125 -315 1665 -22 219 -30 679 -16 870 13 163 50
401 75 484 8 27 12 54 9 59 -7 12 -129 1 -199 -17 -233 -61 -389 -292 -457
-671 -17 -100 -21 -161 -21 -362 -1 -134 -2 -243 -4 -243 -9 0 -77 163 -107
255 -84 257 -118 601 -80 826 53 318 220 558 463 666 l57 25 -46 43 c-49 46
-122 75 -188 75 -147 -1 -350 -96 -567 -266 -52 -41 -94 -72 -94 -70 0 2 16
51 36 108 94 269 237 466 415 571 174 102 406 120 632 47 l89 -29 -6 32 c-8
39 -57 114 -120 183 -25 29 -46 55 -46 58 0 10 81 -5 136 -26z m20730 -33 c53
-22 104 -66 154 -134 42 -56 48 -60 86 -61 122 -1 296 -56 424 -133 446 -268
799 -997 951 -1962 12 -77 15 -82 76 -152 134 -154 293 -386 354 -518 16 -33
36 -89 45 -124 27 -108 9 -275 -32 -288 -5 -2 -32 29 -59 68 -85 124 -153 157
-243 119 -120 -52 -238 -248 -385 -635 -118 -310 -190 -455 -341 -685 -204
-311 -484 -597 -769 -789 l-102 -68 -13 -84 c-16 -97 -86 -319 -129 -404 l-30
-59 -27 80 c-38 116 -90 197 -186 295 -73 73 -116 107 -227 175 -17 11 -17 13
6 37 52 57 283 141 449 163 l52 7 59 101 c161 276 330 673 435 1019 34 111 36
127 36 256 0 197 -25 451 -150 1516 -22 187 -44 348 -48 359 -7 17 -10 16 -40
-9 -56 -47 -105 -167 -117 -287 -8 -70 -21 -83 -61 -59 -47 29 -76 120 -82
263 -2 66 0 144 7 181 25 145 104 334 202 488 47 72 54 90 53 130 -5 137 -157
502 -389 930 -90 165 -103 210 -67 242 14 13 52 32 70 36 1 1 19 -6 38 -14z
m-17751 -7880 c103 -29 231 -124 329 -244 257 -314 279 -617 58 -834 l-49 -48
-112 136 -112 136 26 31 c102 121 84 261 -53 409 -95 103 -183 139 -251 101
-40 -21 -71 -73 -71 -117 0 -51 36 -164 100 -315 33 -78 74 -186 92 -239 30
-88 33 -107 33 -221 0 -120 -1 -128 -32 -193 -101 -212 -354 -342 -575 -296
-196 42 -414 242 -542 498 -127 252 -92 479 107 705 l43 49 117 -127 116 -127
-36 -47 c-62 -81 -83 -137 -83 -223 0 -68 4 -84 36 -148 45 -89 129 -182 196
-215 104 -52 231 -28 281 53 42 69 29 140 -74 385 -33 76 -73 182 -90 235 -81
248 -31 454 141 585 114 87 258 112 405 71z m16908 -285 c85 -31 263 -134 281
-162 6 -11 -55 -102 -232 -343 -231 -317 -239 -330 -220 -344 73 -51 209 -66
283 -32 54 24 119 100 135 155 14 53 7 94 -28 158 -15 26 -24 48 -21 50 2 2
57 54 121 117 l115 113 31 -53 c130 -230 82 -478 -133 -695 -127 -129 -226
-174 -378 -174 -186 0 -386 97 -546 266 -128 134 -176 248 -175 414 0 83 5
118 22 164 70 189 227 341 405 391 88 25 234 14 340 -25z m-15475 -1304 c2 -3
-65 -75 -149 -162 l-153 -157 84 -77 83 -76 -93 -98 -93 -97 -78 77 c-42 42
-81 75 -86 73 -20 -8 -443 -456 -460 -487 -17 -31 -17 -34 2 -69 13 -24 39
-47 77 -68 l57 -31 -66 -84 c-36 -47 -71 -94 -79 -105 -14 -20 -15 -19 -80 14
-91 47 -205 156 -243 233 -43 85 -42 149 1 231 31 58 67 98 442 493 l109 115
-54 48 -53 48 41 49 c23 27 64 71 92 99 l51 49 53 -52 53 -52 88 89 88 88 181
-44 c99 -24 183 -45 185 -47z m14154 -64 c86 -41 110 -63 450 -421 l298 -314
-117 -111 c-64 -61 -120 -111 -124 -111 -5 0 -112 110 -239 245 -347 368 -388
403 -481 404 -80 0 -165 -67 -198 -157 -6 -16 -11 -55 -11 -88 0 -107 36 -157
364 -502 119 -126 216 -232 214 -236 -8 -17 -229 -222 -237 -219 -12 4 -851
891 -851 899 0 4 50 53 111 110 l111 103 58 -65 59 -64 1 65 c1 142 55 264
160 364 141 132 290 166 432 98z m-1703 -789 c45 -65 81 -122 80 -128 -2 -9
-261 -197 -265 -192 -37 46 -174 251 -170 255 19 18 253 181 262 181 6 1 47
-52 93 -116z m541 -768 c194 -275 354 -504 356 -510 3 -9 -228 -179 -258 -190
-11 -4 -220 287 -670 931 l-58 82 137 96 c75 53 137 95 138 94 2 -2 161 -228
355 -503z m-1435 70 c55 -102 105 -185 110 -185 6 0 50 23 99 50 49 28 93 47
97 43 13 -14 119 -209 119 -220 0 -5 -42 -32 -92 -61 -51 -28 -92 -54 -91 -59
3 -13 293 -535 314 -565 40 -55 93 -50 167 17 l51 46 71 -102 c68 -94 71 -103
59 -125 -20 -39 -127 -121 -207 -161 -60 -30 -86 -37 -150 -41 -91 -5 -134 11
-193 75 -53 56 -64 74 -239 389 -89 159 -165 293 -170 298 -5 5 -34 -5 -66
-23 -32 -17 -61 -31 -65 -31 -4 0 -35 50 -69 112 -71 126 -72 115 22 164 l47
24 -60 106 c-32 59 -59 108 -59 109 0 10 192 325 198 325 4 0 52 -84 107 -185z
m-11664 -121 c68 -52 123 -100 121 -105 -1 -6 -46 -66 -98 -135 l-96 -124 -24
18 c-186 141 -233 179 -233 187 -1 13 187 255 198 255 5 0 64 -43 132 -96z
m2921 -120 c84 -36 157 -69 163 -75 8 -8 -32 -1838 -41 -1848 -2 -3 -82 29
-176 70 l-172 74 2 70 c1 39 5 133 8 210 l6 140 -299 127 c-164 70 -305 130
-314 133 -11 4 -41 -21 -95 -77 -44 -46 -109 -113 -144 -150 l-65 -67 -164 72
c-90 40 -163 76 -163 80 1 13 1275 1305 1289 1306 6 1 80 -29 165 -65z m7811
-574 c39 -15 80 -42 123 -82 35 -33 64 -63 64 -67 0 -6 -254 -161 -265 -161
-3 0 -23 13 -43 29 -72 58 -166 57 -288 -4 -112 -55 -149 -113 -106 -165 27
-33 90 -35 300 -10 233 28 392 25 467 -8 154 -70 231 -259 175 -433 -53 -164
-195 -283 -430 -361 -207 -69 -379 -58 -522 33 -44 29 -128 113 -128 128 0 4
64 43 143 88 l142 80 35 -37 c63 -67 128 -88 217 -70 118 24 222 91 243 156
10 28 9 40 -7 72 -27 55 -49 59 -225 36 -95 -12 -214 -19 -313 -19 -143 0
-165 2 -207 22 -66 30 -133 96 -165 162 -25 50 -28 67 -28 156 0 93 2 104 32
161 72 137 261 252 513 310 79 19 203 12 273 -16z m-6390 -416 c119 -23 147
-31 147 -45 0 -9 -31 -171 -70 -360 -80 -395 -93 -484 -78 -537 24 -88 93
-133 203 -133 128 0 207 64 249 203 21 69 99 431 147 676 6 34 15 64 18 66 8
5 307 -57 316 -65 7 -8 -233 -1200 -244 -1212 -7 -7 -286 45 -297 55 -2 3 2
37 11 77 20 96 20 96 -18 67 -192 -147 -491 -129 -646 39 -70 76 -85 121 -85
255 0 105 7 150 83 515 94 458 89 438 104 432 7 -2 78 -17 160 -33z m4762 -56
c22 -90 212 -1194 207 -1199 -4 -4 -63 -17 -132 -29 -69 -12 -135 -24 -146
-26 -20 -5 -22 1 -34 75 -7 45 -16 81 -20 81 -3 0 -21 -22 -39 -50 -113 -175
-373 -262 -564 -190 -113 43 -185 127 -225 262 -27 90 -172 890 -163 900 9 10
311 62 318 55 3 -4 34 -163 68 -354 76 -420 89 -476 120 -529 59 -101 216
-110 322 -19 80 68 98 148 72 318 -11 77 -106 618 -114 653 -4 19 5 22 133 46
179 33 190 34 197 6z m-2450 -215 c71 -22 111 -48 183 -117 l62 -60 0 82 0 83
156 -3 155 -3 -1 -245 c-2 -432 -18 -1033 -30 -1098 -51 -294 -240 -415 -620
-398 -225 10 -343 47 -433 134 -70 68 -99 130 -105 224 l-4 76 43 -5 c24 -3
109 -15 188 -27 l144 -21 10 -30 c24 -75 87 -100 230 -93 116 6 167 29 199 91
19 37 22 60 25 192 l4 150 -22 -29 c-38 -49 -137 -115 -206 -136 -71 -22 -180
-26 -252 -9 -180 41 -332 214 -377 429 -20 96 -14 336 10 425 39 143 136 279
241 341 117 68 271 86 400 47z"/>
<path d="M13501 24108 c-13 -5 -85 -24 -160 -43 -167 -42 -243 -68 -282 -95
-38 -28 -69 -89 -69 -138 0 -57 43 -135 93 -168 39 -27 49 -29 137 -29 86 0
100 3 148 29 68 38 120 89 143 140 20 48 33 200 22 267 -8 44 -9 46 -32 37z"/>
<path d="M8975 23058 c-28 -24 -93 -79 -145 -122 -113 -93 -146 -128 -171
-181 -24 -52 -24 -96 1 -144 39 -77 113 -117 204 -109 67 6 121 32 176 88 67
67 95 129 95 215 0 61 -6 82 -43 166 -64 143 -59 139 -117 87z"/>
<path d="M19103 17382 c-518 -345 -963 -647 -988 -672 -154 -150 -343 -442
-435 -675 -45 -114 -116 -248 -148 -280 -23 -23 -686 -409 -927 -540 -44 -24
-143 -79 -219 -122 l-139 -79 -86 35 c-80 33 -93 36 -196 36 -123 0 -121 1
-290 -103 -127 -77 -160 -106 -186 -158 -19 -40 -21 -56 -16 -126 4 -44 2
-100 -4 -126 l-10 -47 -376 -219 c-206 -121 -382 -226 -390 -234 -13 -13 -16
-13 -24 -1 -14 22 -10 297 7 489 25 287 29 528 10 649 -9 58 -13 108 -9 111 5
4 251 94 548 200 524 187 541 194 582 235 46 46 63 89 44 108 -45 45 -476 -35
-1043 -194 l-217 -61 -103 96 c-187 175 -336 273 -432 283 -37 5 -93 -11 -350
-97 l-306 -102 -25 -42 c-59 -101 -92 -250 -102 -460 l-6 -141 -511 -239
c-531 -249 -601 -289 -654 -368 l-26 -40 24 -20 c22 -18 35 -20 115 -15 86 5
115 14 619 196 291 105 535 191 543 191 7 0 13 -10 13 -21 0 -35 68 -227 115
-328 35 -72 64 -114 129 -186 104 -116 157 -185 190 -251 37 -74 34 -86 -26
-130 -533 -386 -987 -765 -1073 -897 -10 -16 -109 -93 -219 -172 -111 -78
-256 -183 -323 -231 -227 -165 -277 -199 -342 -232 -71 -36 -74 -36 -166 -2
-52 19 -73 22 -165 17 -133 -6 -289 -53 -331 -98 -38 -41 -61 -118 -68 -223
l-6 -89 -749 -468 -748 -469 -63 0 c-271 0 -788 -62 -1085 -130 -242 -56 -145
1 -1195 -700 l-955 -637 388 -541 c272 -382 392 -541 403 -538 9 2 453 292
988 646 641 423 978 640 989 637 9 -3 67 -26 127 -52 200 -85 531 -191 820
-264 527 -132 1067 -213 1760 -263 235 -17 1190 -17 1450 0 1148 75 2203 255
3374 577 473 129 1273 386 1396 448 314 156 503 456 522 827 10 211 -25 559
-77 766 -27 103 -81 237 -102 250 -4 3 -50 -30 -101 -74 -231 -198 -428 -324
-596 -381 -35 -12 -150 -35 -255 -51 -399 -60 -757 -85 -1106 -77 -210 5 -443
26 -458 42 -2 2 -9 256 -15 564 l-10 559 26 45 c38 64 172 191 269 255 112 74
335 182 374 182 84 0 284 54 380 103 104 53 154 121 154 209 0 169 -83 382
-239 614 -103 154 -182 251 -330 407 -116 123 -121 129 -121 171 0 83 73 158
247 252 49 26 111 61 138 79 28 18 124 76 215 130 91 54 303 185 472 291 l306
194 119 0 c346 0 720 55 955 140 165 60 574 336 1418 959 456 336 502 371 497
386 -13 32 -622 915 -631 914 -6 0 -435 -282 -953 -627z m-3478 -3043 c22 -12
65 -38 95 -58 62 -43 130 -67 210 -77 95 -12 154 -40 205 -97 83 -91 150 -262
143 -364 -3 -45 -6 -49 -43 -68 -32 -16 -60 -20 -135 -20 -111 0 -151 15 -287
108 -53 36 -111 65 -165 83 -78 26 -97 28 -323 33 -132 3 -246 10 -252 14 -7
5 -13 24 -13 44 0 46 22 67 244 232 207 154 258 190 271 191 6 0 28 -9 50 -21z
m-2400 -2355 c-19 -313 -35 -577 -35 -585 0 -13 -60 -15 -462 -15 -543 0 -758
-13 -1101 -69 -263 -44 -482 -112 -604 -188 -51 -32 -219 -179 -425 -373
l-107 -101 -73 -11 c-336 -50 -604 -37 -674 33 -46 46 -23 125 58 201 143 136
343 269 1033 685 l570 344 431 0 432 0 98 50 c172 87 598 385 819 573 52 45
71 56 73 43 1 -9 -13 -273 -33 -587z"/>
<path d="M21130 21474 c-145 -40 -343 -222 -418 -384 -21 -45 -26 -70 -26
-140 0 -73 4 -92 26 -136 31 -60 93 -118 157 -148 36 -16 65 -21 137 -21 85 0
95 2 169 39 61 30 99 59 165 125 47 47 98 105 114 128 106 158 101 335 -12
451 -84 86 -199 118 -312 86z"/>
<path d="M21954 7421 c-88 -51 -132 -146 -113 -244 11 -59 34 -98 87 -150 l39
-38 143 197 143 196 -24 19 c-37 29 -107 49 -168 49 -43 0 -67 -7 -107 -29z"/>
<path d="M9270 3986 c-122 -129 -221 -238 -221 -242 0 -9 404 -184 411 -177 5
5 40 646 35 651 -1 2 -102 -103 -225 -232z"/>
<path d="M13283 3101 c-148 -38 -220 -177 -210 -406 6 -169 51 -260 150 -310
148 -73 324 14 371 184 34 125 29 281 -13 376 -51 116 -183 185 -298 156z"/>
</g>
</svg>
